<?xml version="1.0" encoding="iso-8859-1"?>
<!-- Generator: Adobe Illustrator 25.2.3, SVG Export Plug-In . SVG Version: 6.00 Build 0)  -->
<svg version="1.1" baseProfile="basic" xmlns="http://www.w3.org/2000/svg" xmlns:xlink="http://www.w3.org/1999/xlink" x="0px"
	 y="0px" viewBox="0 0 24 24" xml:space="preserve">
<path style="fill-rule:evenodd;clip-rule:evenodd;" d="M3.5,6.63C4.38,5.25,5.58,4.1,7.01,3.3c2.07,0.68,4.32,2,6.05,3.97
	C10.16,8.33,6.76,8.34,3.5,6.63z"/>
<path style="fill-rule:evenodd;clip-rule:evenodd;" d="M6.43,20.35c-2.71-1.79-4.5-4.86-4.5-8.35c0-1.26,0.23-2.47,0.67-3.58
	c2.11,1.1,4.27,1.59,6.36,1.59c1.88,0,3.69-0.39,5.34-1.07c0.37,0.6,0.69,1.26,0.95,1.96c-0.95,0.34-1.89,0.79-2.78,1.34
	C9.4,14.16,7.24,17.06,6.43,20.35z"/>
<path style="fill-rule:evenodd;clip-rule:evenodd;" d="M9.71,2.25C10.42,2.09,11.17,2,11.93,2c2.28,0,4.37,0.76,6.05,2.04
	c-0.85,0.92-1.88,1.73-3.03,2.37C13.47,4.57,11.59,3.19,9.71,2.25z"/>
<path style="fill-rule:evenodd;clip-rule:evenodd;" d="M15.94,13.89c0.46,4.66-1.6,7.53-1.85,7.87c-0.01,0-0.01,0.01-0.01,0.01
	C13.39,21.92,12.67,22,11.93,22c-1.3,0-2.53-0.25-3.67-0.7c0.59-2.98,2.49-5.64,5.26-7.36c0.73-0.46,1.49-0.83,2.27-1.11
	C15.85,13.17,15.9,13.53,15.94,13.89z"/>
<path style="fill-rule:evenodd;clip-rule:evenodd;" d="M21.92,12.34c-0.12,3.54-2.07,6.62-4.95,8.3c0.66-1.6,1.26-3.96,0.96-6.95
	c-0.05-0.48-0.12-0.95-0.21-1.4C19.16,12.01,20.59,12.02,21.92,12.34z"/>
<path style="fill-rule:evenodd;clip-rule:evenodd;" d="M17.19,10.36c-0.3-0.82-0.66-1.59-1.09-2.3c1.27-0.73,2.41-1.63,3.34-2.66
	c1.19,1.35,2.02,3.02,2.34,4.87C20.3,10.01,18.74,10.04,17.19,10.36z"/>
</svg>