<svg class="svg-icon" style="width: 1em; height: 1em;vertical-align: middle;fill: currentColor;overflow: hidden;" viewBox="0 0 1024 1024" version="1.1" xmlns="http://www.w3.org/2000/svg"><path d="M948 890.2L758.3 700.5c22.8-28.2 41.5-59.3 55.7-93 20.4-48.1 30.7-99.2 30.7-151.9S834.4 351.9 814 303.8c-19.7-46.5-47.8-88.2-83.6-124s-77.5-64-124-83.6c-48.1-20.4-99.2-30.7-151.9-30.7S350.7 75.8 302.6 96.2c-46.5 19.7-88.2 47.8-124 83.6s-64 77.5-83.6 124C74.6 351.9 64.3 403 64.3 455.7S74.6 559.5 95 607.6c19.7 46.5 47.8 88.2 83.6 124s77.5 64 124 83.6c48.1 20.4 99.2 30.7 151.9 30.7s103.8-10.3 151.9-30.7c34.7-14.7 66.7-34.1 95.6-57.8l189.5 189.5c7.8 7.8 18 11.7 28.3 11.7s20.5-3.9 28.3-11.7c15.5-15.7 15.5-41-0.1-56.7zM454.5 765.9c-171 0-310.2-139.2-310.2-310.2s139.2-310.2 310.2-310.2 310.2 139.2 310.2 310.2-139.2 310.2-310.2 310.2z"  /></svg>